<svg width="163" height="186" viewBox="0 0 163 186" fill="none" xmlns="http://www.w3.org/2000/svg">
<path d="M81.5 11.625C89.2197 11.625 96.6232 14.6869 102.082 20.1372C107.541 25.5875 110.607 32.9796 110.607 40.6875V46.5H52.3929V40.6875C52.3929 32.9796 55.4595 25.5875 60.9181 20.1372C66.3768 14.6869 73.7803 11.625 81.5 11.625V11.625ZM122.25 46.5V40.6875C122.25 29.8965 117.957 19.5475 110.315 11.9171C102.672 4.28671 92.3076 0 81.5 0C70.6924 0 60.3275 4.28671 52.6854 11.9171C45.0433 19.5475 40.75 29.8965 40.75 40.6875V46.5H0V162.75C0 168.916 2.45331 174.83 6.82023 179.19C11.1871 183.55 17.11 186 23.2857 186H139.714C145.89 186 151.813 183.55 156.18 179.19C160.547 174.83 163 168.916 163 162.75V46.5H122.25ZM11.6429 58.125H151.357V162.75C151.357 165.833 150.13 168.79 147.947 170.97C145.764 173.15 142.802 174.375 139.714 174.375H23.2857C20.1978 174.375 17.2364 173.15 15.053 170.97C12.8695 168.79 11.6429 165.833 11.6429 162.75V58.125Z" fill="white"/>
</svg>
