<svg width="163" height="186" viewBox="0 0 163 186" fill="none" xmlns="http://www.w3.org/2000/svg">
<path fill-rule="evenodd" clip-rule="evenodd" d="M110.607 40.6875C110.607 32.9796 107.541 25.5875 102.082 20.1372C96.6232 14.6869 89.2197 11.625 81.5 11.625C73.7803 11.625 66.3768 14.6869 60.9181 20.1372C55.4595 25.5875 52.3929 32.9796 52.3929 40.6875V46.5H110.607V40.6875ZM122.25 40.6875V46.5H163V162.75C163 168.916 160.547 174.83 156.18 179.19C151.813 183.55 145.89 186 139.714 186H23.2857C17.11 186 11.1871 183.55 6.82023 179.19C2.45331 174.83 0 168.916 0 162.75V46.5H40.75V40.6875C40.75 29.8965 45.0433 19.5475 52.6854 11.9171C60.3275 4.28671 70.6924 0 81.5 0C92.3076 0 102.672 4.28671 110.315 11.9171C117.957 19.5475 122.25 29.8965 122.25 40.6875V40.6875ZM114.729 102.928C115.822 101.836 116.436 100.356 116.436 98.8125C116.436 97.269 115.822 95.7887 114.729 94.6972C113.636 93.6058 112.153 92.9927 110.607 92.9927C109.061 92.9927 107.579 93.6058 106.486 94.6972L75.6786 125.469L62.3359 112.135C61.7946 111.594 61.152 111.166 60.4449 110.873C59.7377 110.581 58.9797 110.43 58.2143 110.43C57.4488 110.43 56.6909 110.581 55.9837 110.873C55.2765 111.166 54.634 111.594 54.0927 112.135C53.5515 112.675 53.1221 113.317 52.8292 114.023C52.5363 114.729 52.3855 115.486 52.3855 116.25C52.3855 117.014 52.5363 117.771 52.8292 118.477C53.1221 119.183 53.5515 119.825 54.0927 120.365L71.557 137.803C72.0978 138.344 72.7402 138.774 73.4474 139.067C74.1547 139.36 74.9129 139.51 75.6786 139.51C76.4443 139.51 77.2025 139.36 77.9097 139.067C78.617 138.774 79.2594 138.344 79.8001 137.803L114.729 102.928V102.928Z" fill="white"/>
</svg>
